<?xml version="1.0" encoding="UTF-8" standalone="no"?>
<!DOCTYPE svg PUBLIC "-//W3C//DTD SVG 1.0//EN" "http://www.w3.org/TR/2001/PR-SVG-20010719/DTD/svg10.dtd">
<svg width="60cm" height="11cm" viewBox="-1 42 1181 217" xmlns="http://www.w3.org/2000/svg" xmlns:xlink="http://www.w3.org/1999/xlink">
  <g>
    <rect style="fill: #ffffff" x="0.553572" y="43.5" width="255" height="80"/>
    <rect style="fill: none; fill-opacity:0; stroke-width: 2; stroke: #000000" x="0.553572" y="43.5" width="255" height="80"/>
  </g>
  <text font-size="12.8" style="fill: #000000;text-anchor:middle;font-family:sans-serif;font-style:normal;font-weight:normal" x="128.054" y="88.575">
    <tspan x="128.054" y="88.575">Calculate Energy map</tspan>
  </text>
  <g>
    <rect style="fill: #ffffff" x="309.072" y="43.5" width="255" height="80"/>
    <rect style="fill: none; fill-opacity:0; stroke-width: 2; stroke: #000000" x="309.072" y="43.5" width="255" height="80"/>
  </g>
  <text font-size="12.8" style="fill: #000000;text-anchor:middle;font-family:sans-serif;font-style:normal;font-weight:normal" x="436.572" y="88.3819">
    <tspan x="436.572" y="88.3819">Calculate Accumulated Energy map</tspan>
  </text>
  <g>
    <rect style="fill: #ffffff" x="616.136" y="43.5" width="255" height="80"/>
    <rect style="fill: none; fill-opacity:0; stroke-width: 2; stroke: #000000" x="616.136" y="43.5" width="255" height="80"/>
  </g>
  <text font-size="12.8" style="fill: #000000;text-anchor:middle;font-family:sans-serif;font-style:normal;font-weight:normal" x="743.636" y="88.3819">
    <tspan x="743.636" y="88.3819">Backtrack to get the lowest energy seam</tspan>
  </text>
  <g>
    <rect style="fill: #ffffff" x="924.3" y="43.5" width="255" height="80"/>
    <rect style="fill: none; fill-opacity:0; stroke-width: 2; stroke: #000000" x="924.3" y="43.5" width="255" height="80"/>
  </g>
  <text font-size="12.8" style="fill: #000000;text-anchor:middle;font-family:sans-serif;font-style:normal;font-weight:normal" x="1051.8" y="88.3819">
    <tspan x="1051.8" y="88.3819">Remove the pixel from Image in the seams</tspan>
  </text>
  <g>
    <rect style="fill: #ffffff" x="924.3" y="178" width="255" height="80"/>
    <rect style="fill: none; fill-opacity:0; stroke-width: 2; stroke: #000000" x="924.3" y="178" width="255" height="80"/>
  </g>
  <text font-size="12.8" style="fill: #000000;text-anchor:middle;font-family:sans-serif;font-style:normal;font-weight:normal" x="1051.8" y="222.882">
    <tspan x="1051.8" y="222.882">Repeat to get K seams</tspan>
  </text>
  <g>
    <line style="fill: none; fill-opacity:0; stroke-width: 2; stroke: #000000" x1="255.554" y1="83.5" x2="299.336" y2="83.5"/>
    <polygon style="fill: #000000" points="306.836,83.5 296.836,88.5 299.336,83.5 296.836,78.5 "/>
    <polygon style="fill: none; fill-opacity:0; stroke-width: 2; stroke: #000000" points="306.836,83.5 296.836,88.5 299.336,83.5 296.836,78.5 "/>
  </g>
  <g>
    <line style="fill: none; fill-opacity:0; stroke-width: 2; stroke: #000000" x1="565.075" y1="83.5" x2="606.4" y2="83.5"/>
    <polygon style="fill: #000000" points="613.9,83.5 603.9,88.5 606.4,83.5 603.9,78.5 "/>
    <polygon style="fill: none; fill-opacity:0; stroke-width: 2; stroke: #000000" points="613.9,83.5 603.9,88.5 606.4,83.5 603.9,78.5 "/>
  </g>
  <g>
    <line style="fill: none; fill-opacity:0; stroke-width: 2; stroke: #000000" x1="871.136" y1="83.5" x2="914.564" y2="83.5"/>
    <polygon style="fill: #000000" points="922.064,83.5 912.064,88.5 914.564,83.5 912.064,78.5 "/>
    <polygon style="fill: none; fill-opacity:0; stroke-width: 2; stroke: #000000" points="922.064,83.5 912.064,88.5 914.564,83.5 912.064,78.5 "/>
  </g>
  <g>
    <line style="fill: none; fill-opacity:0; stroke-width: 2; stroke: #000000" x1="1051.8" y1="123.5" x2="1051.8" y2="168.264"/>
    <polygon style="fill: #000000" points="1051.8,175.764 1046.8,165.764 1051.8,168.264 1056.8,165.764 "/>
    <polygon style="fill: none; fill-opacity:0; stroke-width: 2; stroke: #000000" points="1051.8,175.764 1046.8,165.764 1051.8,168.264 1056.8,165.764 "/>
  </g>
  <text font-size="12.8" style="fill: #000000;text-anchor:middle;font-family:sans-serif;font-style:normal;font-weight:normal" x="437.918" y="221.882">
    <tspan x="437.918" y="221.882"></tspan>
  </text>
  <g>
    <rect style="fill: #ffffff" x="617.482" y="177" width="255" height="80"/>
    <rect style="fill: none; fill-opacity:0; stroke-width: 2; stroke: #000000" x="617.482" y="177" width="255" height="80"/>
  </g>
  <text font-size="12.8" style="fill: #000000;text-anchor:middle;font-family:sans-serif;font-style:normal;font-weight:normal" x="744.982" y="213.882">
    <tspan x="744.982" y="213.882">Add new seams via</tspan>
    <tspan x="744.982" y="229.882">averaging neighbour pixels</tspan>
  </text>
  <g>
    <line style="fill: none; fill-opacity:0; stroke-width: 2; stroke: #000000" x1="924.3" y1="218" x2="882.217" y2="217.188"/>
    <polygon style="fill: #000000" points="874.718,217.043 884.813,212.237 882.217,217.188 884.62,222.235 "/>
    <polygon style="fill: none; fill-opacity:0; stroke-width: 2; stroke: #000000" points="874.718,217.043 884.813,212.237 882.217,217.188 884.62,222.235 "/>
  </g>
</svg>
