<?xml version="1.0" encoding="UTF-8" standalone="no"?>
<!DOCTYPE svg PUBLIC "-//W3C//DTD SVG 1.0//EN" "http://www.w3.org/TR/2001/PR-SVG-20010719/DTD/svg10.dtd">
<svg width="44cm" height="5cm" viewBox="171 86 873 83" xmlns="http://www.w3.org/2000/svg" xmlns:xlink="http://www.w3.org/1999/xlink">
  <g>
    <rect style="fill: #ffffff" x="172.9" y="87" width="255" height="80"/>
    <rect style="fill: none; fill-opacity:0; stroke-width: 2; stroke: #000000" x="172.9" y="87" width="255" height="80"/>
  </g>
  <text font-size="12.8" style="fill: #000000;text-anchor:middle;font-family:sans-serif;font-style:normal;font-weight:normal" x="300.4" y="131.882">
    <tspan x="300.4" y="131.882">Start with Index Matrix and Energy Matrix</tspan>
  </text>
  <g>
    <rect style="fill: #ffffff" x="481.418" y="87" width="255" height="80"/>
    <rect style="fill: none; fill-opacity:0; stroke-width: 2; stroke: #000000" x="481.418" y="87" width="255" height="80"/>
  </g>
  <text font-size="12.8" style="fill: #000000;text-anchor:middle;font-family:sans-serif;font-style:normal;font-weight:normal" x="608.918" y="123.882">
    <tspan x="608.918" y="123.882">Enumerate the indexes in Zig Zag manner</tspan>
    <tspan x="608.918" y="139.882">This will save the memory space</tspan>
  </text>
  <g>
    <rect style="fill: #ffffff" x="788.482" y="87" width="255" height="80"/>
    <rect style="fill: none; fill-opacity:0; stroke-width: 2; stroke: #000000" x="788.482" y="87" width="255" height="80"/>
  </g>
  <text font-size="12.8" style="fill: #000000;text-anchor:middle;font-family:sans-serif;font-style:normal;font-weight:normal" x="915.982" y="123.882">
    <tspan x="915.982" y="123.882">For each (i,j), determine which seam</tspan>
    <tspan x="915.982" y="139.882">removal give minimum energy</tspan>
  </text>
  <g>
    <line style="fill: none; fill-opacity:0; stroke-width: 2; stroke: #000000" x1="427.9" y1="127" x2="471.682" y2="127"/>
    <polygon style="fill: #000000" points="479.182,127 469.182,132 471.682,127 469.182,122 "/>
    <polygon style="fill: none; fill-opacity:0; stroke-width: 2; stroke: #000000" points="479.182,127 469.182,132 471.682,127 469.182,122 "/>
  </g>
  <g>
    <line style="fill: none; fill-opacity:0; stroke-width: 2; stroke: #000000" x1="737.421" y1="127" x2="778.746" y2="127"/>
    <polygon style="fill: #000000" points="786.246,127 776.246,132 778.746,127 776.246,122 "/>
    <polygon style="fill: none; fill-opacity:0; stroke-width: 2; stroke: #000000" points="786.246,127 776.246,132 778.746,127 776.246,122 "/>
  </g>
</svg>
